# xmcd
#
# Track frame offsets: 
#        150
#        40062
#        59392
#        79640
#        102042
#        125337
#        138885
#        161180
#        176700
#        198432
#        222527
#        243105
#        255542
#        282307
#        307880
#        311450
#
# Disc length: 4626 seconds
#
# Revision: 9
# Processed by: cddbd v1.5.2PL0 Copyright (c) Steve Scherf et al.
# Submitted via: ExactAudioCopyFreeDBPlugin 1.0
#
DISCID=da121010
DTITLE=Louis Armstrong - Louis Armstrong  Plays W. C. Handy
DYEAR=1954
DGENRE=Blues
TTITLE0=St. Louis Blues
TTITLE1=Yellow Dog Blues
TTITLE2=Loveless Love
TTITLE3=Aunt Hagar's Blues
TTITLE4=Long Gone (From The Bowlin' Green)
TTITLE5=The Memphis Blues (Or Mister Crump)
TTITLE6=Beale Street Blues
TTITLE7=Ole Miss Blues
TTITLE8=Chantez Les Bas (Sing 'Em Low)
TTITLE9=Hesitating Blues
TTITLE10=Atlanta Blues (Make Me One Pallet On Your Floor)
TTITLE11=George Avakian's Interview With W. C. Handy [rec 19 Oct 1956]
TTITLE12=Loveless Love (Rehearsal Sequence)
TTITLE13=Hesitating Blues (Rehearsal Sequence)
TTITLE14=Alligator Story
TTITLE15=Long Gone (From The Bowlin' Green) (Rehearsal Sequence)
EXTD=YEAR: 1997
EXTT0=W. C. Handy
EXTT1=W. C. Handy
EXTT2=W. C. Handy
EXTT3=J. T. Brymn - W. C. Handy
EXTT4=C. Smith - W. C. Handy
EXTT5=G. A. Norton - W. C. Handy
EXTT6=W. C. Handy
EXTT7=W. C. Handy - W. Hirsch
EXTT8=W. C. Handy
EXTT9=W. C. Handy
EXTT10=W. C. Handy - D. Ellman
EXTT11=
EXTT12=W. C. Handy
EXTT13=W. C. Handy
EXTT14=
EXTT15=C. Smith - W. C. Handy
PLAYORDER=
